<svg width="163" height="36" viewBox="0 0 163 36" fill="none" xmlns="http://www.w3.org/2000/svg">
<path d="M50.6485 14C50.4496 13.2756 50.1584 12.5973 49.7749 11.9652C49.3914 11.326 48.9155 10.7685 48.3474 10.2926C47.7863 9.80966 47.1364 9.43324 46.3978 9.16335C45.6662 8.89347 44.8495 8.75852 43.9475 8.75852C42.527 8.75852 41.2557 9.12784 40.1336 9.86648C39.0114 10.6051 38.1236 11.6705 37.4702 13.0625C36.8239 14.4545 36.5008 16.1307 36.5008 18.0909C36.5008 20.044 36.8275 21.7166 37.4809 23.1087C38.1343 24.5007 39.0292 25.5696 40.1655 26.3153C41.309 27.054 42.6158 27.4233 44.086 27.4233C45.4283 27.4233 46.6144 27.125 47.6442 26.5284C48.6741 25.9318 49.4766 25.0795 50.0519 23.9716C50.6343 22.8636 50.9184 21.5462 50.9042 20.0192L51.5434 20.2216H44.5547V18.4318H52.8431V20.2216C52.8431 22.0824 52.4667 23.6911 51.7138 25.0476C50.961 26.4041 49.9276 27.4517 48.6137 28.1903C47.2998 28.929 45.7905 29.2983 44.086 29.2983C42.1826 29.2983 40.5171 28.8402 39.0895 27.924C37.662 27.0007 36.5505 25.701 35.755 24.0249C34.9667 22.3416 34.5725 20.3636 34.5725 18.0909C34.5725 16.3793 34.7998 14.8345 35.2543 13.4567C35.7089 12.0788 36.3516 10.8999 37.1826 9.91974C38.0207 8.93963 39.0114 8.19034 40.1549 7.67188C41.2984 7.14631 42.5626 6.88352 43.9475 6.88352C45.1407 6.88352 46.2309 7.07173 47.2181 7.44815C48.2124 7.82457 49.086 8.34304 49.8388 9.00355C50.5988 9.65696 51.2202 10.4134 51.7032 11.2727C52.1932 12.125 52.5235 13.0341 52.6939 14H50.6485ZM65.2105 29.3409C63.6835 29.3409 62.3625 28.9858 61.2475 28.2756C60.1324 27.5582 59.2695 26.5675 58.6587 25.3033C58.055 24.032 57.7531 22.5689 57.7531 20.9141C57.7531 19.2663 58.055 17.8033 58.6587 16.5249C59.2695 15.2393 60.1111 14.2344 61.1835 13.5099C62.2631 12.7784 63.5095 12.4126 64.9229 12.4126C65.8107 12.4126 66.6665 12.576 67.4904 12.9027C68.3142 13.2223 69.0529 13.7159 69.7063 14.3835C70.3668 15.044 70.8888 15.8786 71.2723 16.8871C71.6558 17.8885 71.8476 19.0746 71.8476 20.4453V21.3828H59.0635V19.7102H69.9087C69.9087 18.6591 69.6956 17.7145 69.2695 16.8764C68.8504 16.0312 68.2645 15.3636 67.5117 14.8736C66.7659 14.3835 65.903 14.1385 64.9229 14.1385C63.886 14.1385 62.9733 14.4155 62.185 14.9695C61.3966 15.5234 60.7787 16.255 60.3313 17.1641C59.8909 18.0732 59.6672 19.0675 59.6601 20.147V21.1484C59.6601 22.4482 59.8838 23.5845 60.3313 24.5575C60.7858 25.5234 61.4286 26.2727 62.2595 26.8054C63.0905 27.3381 64.0742 27.6044 65.2105 27.6044C65.9847 27.6044 66.6629 27.4837 67.2453 27.2422C67.8348 27.0007 68.3284 26.6776 68.7262 26.2727C69.131 25.8608 69.4364 25.4098 69.6424 24.9197L71.4428 25.5057C71.1942 26.1946 70.7858 26.8303 70.2176 27.4126C69.6566 27.995 68.9534 28.4638 68.1083 28.8189C67.2702 29.1669 66.3043 29.3409 65.2105 29.3409ZM83.6717 12.6364V14.2876H75.8628V12.6364H83.6717ZM78.3024 8.71591H80.2094V24.728C80.2094 25.4098 80.3265 25.946 80.5609 26.3366C80.7953 26.7202 81.1007 26.9936 81.4771 27.157C81.8535 27.3132 82.2548 27.3913 82.681 27.3913C82.9295 27.3913 83.1426 27.3771 83.3202 27.3487C83.4977 27.3132 83.654 27.2777 83.7889 27.2422L84.1937 28.9574C84.0091 29.0284 83.7818 29.0923 83.5119 29.1491C83.242 29.2131 82.9082 29.245 82.5105 29.245C81.8145 29.245 81.1433 29.0923 80.497 28.7869C79.8578 28.4815 79.3322 28.027 78.9203 27.4233C78.5084 26.8196 78.3024 26.0703 78.3024 25.1754V8.71591ZM101.419 12.6364C101.298 11.4219 100.762 10.456 99.8105 9.73864C98.8588 9.02131 97.662 8.66264 96.2203 8.66264C95.2046 8.66264 94.3097 8.83665 93.5356 9.18466C92.7686 9.53267 92.1649 10.0156 91.7245 10.6335C91.2913 11.2443 91.0747 11.9403 91.0747 12.7216C91.0747 13.2969 91.199 13.8011 91.4475 14.2344C91.6961 14.6676 92.0299 15.0405 92.449 15.353C92.8751 15.6584 93.3438 15.9212 93.8552 16.1413C94.3737 16.3615 94.8957 16.5462 95.4213 16.6953L97.7224 17.3558C98.4184 17.5476 99.1144 17.7926 99.8105 18.0909C100.506 18.3892 101.142 18.7656 101.717 19.2202C102.3 19.6676 102.765 20.218 103.113 20.8714C103.468 21.5178 103.646 22.2955 103.646 23.2045C103.646 24.3693 103.344 25.4169 102.74 26.3473C102.136 27.2777 101.27 28.0163 100.141 28.5632C99.0115 29.103 97.6585 29.3729 96.0818 29.3729C94.5974 29.3729 93.3083 29.1278 92.2146 28.6378C91.1208 28.1406 90.2615 27.4553 89.6365 26.5817C89.0115 25.7081 88.6599 24.696 88.5818 23.5455H90.6272C90.6982 24.4048 90.9823 25.1328 91.4795 25.7294C91.9767 26.326 92.623 26.7805 93.4184 27.093C94.2139 27.3984 95.1017 27.5511 96.0818 27.5511C97.1684 27.5511 98.1343 27.37 98.9795 27.0078C99.8318 26.6385 100.499 26.1271 100.982 25.4737C101.472 24.8132 101.717 24.0462 101.717 23.1726C101.717 22.4339 101.526 21.8161 101.142 21.3189C100.759 20.8146 100.222 20.392 99.5335 20.0511C98.8517 19.7102 98.0597 19.4084 97.1578 19.1456L94.5477 18.3786C92.836 17.8672 91.5079 17.1605 90.5633 16.2585C89.6187 15.3565 89.1464 14.206 89.1464 12.8068C89.1464 11.6349 89.4589 10.6051 90.0839 9.71733C90.716 8.82244 91.5683 8.12642 92.6407 7.62926C93.7203 7.125 94.9312 6.87287 96.2735 6.87287C97.6301 6.87287 98.8303 7.12145 99.8744 7.61861C100.918 8.11577 101.746 8.80114 102.357 9.67471C102.975 10.5412 103.305 11.5284 103.347 12.6364H101.419ZM115.861 29.3409C114.334 29.3409 113.013 28.9858 111.898 28.2756C110.783 27.5582 109.92 26.5675 109.309 25.3033C108.706 24.032 108.404 22.5689 108.404 20.9141C108.404 19.2663 108.706 17.8033 109.309 16.5249C109.92 15.2393 110.762 14.2344 111.834 13.5099C112.914 12.7784 114.16 12.4126 115.574 12.4126C116.461 12.4126 117.317 12.576 118.141 12.9027C118.965 13.2223 119.704 13.7159 120.357 14.3835C121.018 15.044 121.54 15.8786 121.923 16.8871C122.307 17.8885 122.498 19.0746 122.498 20.4453V21.3828H109.714V19.7102H120.559C120.559 18.6591 120.346 17.7145 119.92 16.8764C119.501 16.0312 118.915 15.3636 118.162 14.8736C117.417 14.3835 116.554 14.1385 115.574 14.1385C114.537 14.1385 113.624 14.4155 112.836 14.9695C112.047 15.5234 111.429 16.255 110.982 17.1641C110.542 18.0732 110.318 19.0675 110.311 20.147V21.1484C110.311 22.4482 110.535 23.5845 110.982 24.5575C111.437 25.5234 112.079 26.2727 112.91 26.8054C113.741 27.3381 114.725 27.6044 115.861 27.6044C116.635 27.6044 117.314 27.4837 117.896 27.2422C118.486 27.0007 118.979 26.6776 119.377 26.2727C119.782 25.8608 120.087 25.4098 120.293 24.9197L122.094 25.5057C121.845 26.1946 121.437 26.8303 120.868 27.4126C120.307 27.995 119.604 28.4638 118.759 28.8189C117.921 29.1669 116.955 29.3409 115.861 29.3409ZM129.773 18.7727V29H127.877V12.6364H129.72V15.2038H129.891C130.274 14.3658 130.871 13.6946 131.68 13.1903C132.497 12.679 133.506 12.4233 134.706 12.4233C135.807 12.4233 136.773 12.6541 137.604 13.1158C138.442 13.5703 139.092 14.2415 139.553 15.1293C140.022 16.017 140.256 17.1072 140.256 18.3999V29H138.36V18.517C138.36 17.1747 137.984 16.1129 137.231 15.3317C136.485 14.5504 135.484 14.1598 134.227 14.1598C133.367 14.1598 132.604 14.3445 131.936 14.7138C131.269 15.0831 130.739 15.6158 130.349 16.3118C129.965 17.0007 129.773 17.821 129.773 18.7727ZM152.342 29.3409C150.999 29.3409 149.824 28.9858 148.815 28.2756C147.807 27.5653 147.018 26.5746 146.45 25.3033C145.889 24.032 145.609 22.5511 145.609 20.8608C145.609 19.1776 145.889 17.7038 146.45 16.4396C147.018 15.1683 147.81 14.1811 148.826 13.478C149.842 12.7678 151.024 12.4126 152.374 12.4126C153.368 12.4126 154.195 12.5902 154.856 12.9453C155.516 13.2933 156.045 13.7266 156.443 14.245C156.841 14.7635 157.15 15.2678 157.37 15.7578H157.54V7.18182H159.447V29H157.594V25.9638H157.37C157.15 26.4609 156.837 26.9723 156.432 27.4979C156.028 28.0163 155.491 28.4531 154.824 28.8082C154.163 29.1634 153.336 29.3409 152.342 29.3409ZM152.565 27.6044C153.624 27.6044 154.526 27.3168 155.271 26.7415C156.017 26.1591 156.585 25.3601 156.976 24.3445C157.374 23.3217 157.572 22.1499 157.572 20.8288C157.572 19.522 157.377 18.3679 156.986 17.3665C156.596 16.358 156.028 15.5696 155.282 15.0014C154.536 14.4261 153.631 14.1385 152.565 14.1385C151.472 14.1385 150.548 14.4368 149.795 15.0334C149.05 15.6229 148.481 16.4219 148.091 17.4304C147.707 18.4389 147.516 19.5717 147.516 20.8288C147.516 22.1001 147.711 23.2472 148.102 24.2699C148.492 25.2926 149.06 26.1058 149.806 26.7095C150.559 27.3061 151.479 27.6044 152.565 27.6044Z" fill="#06425C"/>
<path d="M11.0333 18C11.0333 18.7732 10.4961 19.4 9.83333 19.4C9.17059 19.4 8.63333 18.7732 8.63333 18C8.63333 17.2268 9.17059 16.6 9.83333 16.6C10.4961 16.6 11.0333 17.2268 11.0333 18Z" fill="#00C6B0"/>
<path d="M15.4333 18C15.4333 18.7732 14.8961 19.4 14.2333 19.4C13.5706 19.4 13.0333 18.7732 13.0333 18C13.0333 17.2268 13.5706 16.6 14.2333 16.6C14.8961 16.6 15.4333 17.2268 15.4333 18Z" fill="#00C6B0"/>
<path d="M19.8333 18C19.8333 18.7732 19.2961 19.4 18.6333 19.4C17.9706 19.4 17.4333 18.7732 17.4333 18C17.4333 17.2268 17.9706 16.6 18.6333 16.6C19.2961 16.6 19.8333 17.2268 19.8333 18Z" fill="#00C6B0"/>
<path fill-rule="evenodd" clip-rule="evenodd" d="M5.19352 16.6902C5.19352 12.4613 8.62179 9.03299 12.8508 9.03299H16.6229C20.3958 9.03299 23.4543 12.0915 23.4543 15.8644V19.4397C23.4543 23.2283 20.383 26.2997 16.5943 26.2997H13.4799L10.4114 26.2474C9.21246 26.227 8.01655 26.3739 6.85818 26.6837L6.42358 26.7999C5.41189 27.0706 4.50528 26.1075 4.83645 25.114C5.17318 24.1038 5.33333 23.0431 5.30988 21.9785L5.19368 16.7046L5.84685 16.6902H5.19352ZM6.50019 16.6832L6.61623 21.9497C6.64299 23.1644 6.46026 24.3746 6.07606 25.5272C6.07544 25.529 6.07508 25.5304 6.07488 25.5314C6.07538 25.5323 6.07629 25.5337 6.07787 25.5354C6.07945 25.537 6.0808 25.538 6.08168 25.5386C6.08262 25.5384 6.08403 25.5382 6.08594 25.5377L6.52054 25.4214C7.79622 25.0802 9.11325 24.9185 10.4336 24.9409L13.4966 24.993H16.5943C19.6614 24.993 22.1477 22.5067 22.1477 19.4397V15.8644C22.1477 12.8132 19.6742 10.3397 16.6229 10.3397H12.8508C9.34578 10.3397 6.50399 13.1791 6.50019 16.6832Z" fill="#06425C"/>
<path fill-rule="evenodd" clip-rule="evenodd" d="M1.51421 16.2547C1.51421 10.3333 6.31447 5.53299 12.2359 5.53299H17.5177C22.8005 5.53299 27.083 9.81553 27.083 15.0983V20.1044C27.083 25.4093 22.7825 29.7098 17.4776 29.7098H13.1168L8.82025 29.6366C7.14152 29.6081 5.46701 29.8137 3.84506 30.2475L3.23654 30.4103C1.81997 30.7892 0.55053 29.4407 1.01424 28.0496C1.48573 26.6351 1.70998 25.1499 1.67713 23.6593L1.51443 16.2748L2.429 16.2547H1.51421ZM3.34381 16.2448L3.50628 23.619C3.54376 25.3197 3.2879 27.0142 2.74994 28.6281C2.74907 28.6307 2.74857 28.6327 2.74829 28.634C2.74898 28.6353 2.75026 28.6373 2.75247 28.6396C2.75468 28.6419 2.75658 28.6433 2.7578 28.6441C2.75913 28.6439 2.7611 28.6435 2.76378 28.6428L3.3723 28.48C5.15851 28.0023 7.00261 27.7758 8.85135 27.8073L13.1401 27.8802H17.4776C21.7721 27.8802 25.2534 24.3988 25.2534 20.1044V15.0983C25.2534 10.826 21.79 7.36258 17.5177 7.36258H12.2359C7.32821 7.36258 3.34912 11.3384 3.34381 16.2448Z" fill="#06425C"/>
</svg>
